<?xml version="1.0" encoding="UTF-8" standalone="no"?>
<!-- Created with Inkscape (http://www.inkscape.org/) -->

<svg
   width="100"
   height="75"
   viewBox="0 0 26.458333 19.84375"
   version="1.1"
   id="svg1"
   xml:space="preserve"
   inkscape:version="1.3.2 (091e20e, 2023-11-25, custom)"
   sodipodi:docname="harmony.svg"
   xmlns:inkscape="http://www.inkscape.org/namespaces/inkscape"
   xmlns:sodipodi="http://sodipodi.sourceforge.net/DTD/sodipodi-0.dtd"
   xmlns="http://www.w3.org/2000/svg"
   xmlns:svg="http://www.w3.org/2000/svg"><sodipodi:namedview
     id="namedview1"
     pagecolor="#505050"
     bordercolor="#eeeeee"
     borderopacity="1"
     inkscape:showpageshadow="0"
     inkscape:pageopacity="0"
     inkscape:pagecheckerboard="0"
     inkscape:deskcolor="#505050"
     inkscape:document-units="mm"
     inkscape:zoom="4.6060348"
     inkscape:cx="56.556237"
     inkscape:cy="-1.9539583"
     inkscape:window-width="1920"
     inkscape:window-height="1137"
     inkscape:window-x="-8"
     inkscape:window-y="-8"
     inkscape:window-maximized="1"
     inkscape:current-layer="g10" /><defs
     id="defs1" /><g
     inkscape:label="Layer 1"
     inkscape:groupmode="layer"
     id="layer1"
     transform="translate(-100.17334,-119.15435)"><g
       id="g10"
       transform="translate(-0.17232827)"><path
         style="fill:#4d4d4d;fill-opacity:1"
         d="m 106.07848,135.05072 c -1.18082,-0.25301 -1.74069,-0.34439 -2.16398,-0.69418 -0.22178,-0.18327 -0.81864,-0.59968 -1.07812,-0.73917 -0.63726,-0.34258 -1.7688,-1.34711 -2.25553,-2.29179 l -0.40459,-0.78526 0.0924,-0.90296 c 0.28495,-2.78535 1.25976,-5.61534 2.79972,-8.12797 0.33488,-0.54638 0.62478,-0.92076 0.77192,-0.99685 0.80975,-0.41874 3.27647,-1.17957 4.30846,-1.3289 0.30396,-0.044 0.30512,-0.0429 0.59266,0.54068 0.21982,0.44616 0.33035,0.58487 0.46632,0.58525 0.098,2.7e-4 0.66951,-0.0397 1.27,-0.0887 0.79922,-0.0653 1.43212,-0.0624 2.36179,0.0109 0.47215,0.0373 1.59583,-0.31575 1.82605,-0.28783 0.38422,0.0466 3.74944,2.4101 3.22028,2.54054 -0.25001,0.0616 -4.22473,-2.04742 -4.522,-2.04742 -0.91873,0 -0.9469,0.10374 -1.32365,0.286 l 1.86952,0.38037 -2.6796,0.052 c 1.16901,0.0476 -0.11607,0.15802 0.21251,0.19657 0.99931,10e-4 1.89586,0.0953 2.72054,0.40643 0.61847,0.23328 1.76925,1.05192 2.26618,1.52299 0.41569,0.39406 1.49541,1.76758 1.49541,1.9321 0,0.0476 -0.60917,-0.0362 -1.08474,-0.0802 -2.13757,-0.19675 -2.45998,-0.11673 -3.32078,0.75532 -0.64691,0.65534 -1.12821,1.10731 -1.51609,2.4204 -0.38773,1.3126 -0.63582,1.68485 -1.21464,2.29168 -0.69508,0.72872 -1.14065,0.87989 -2.39761,0.87989 -0.97947,0 -1.13571,-0.0867 -1.67893,-0.35414 -0.4412,-0.21726 -0.65838,-0.39592 -0.99407,-0.81779 -0.23624,-0.29689 -0.54195,-0.7064 -0.66074,-0.96587 -0.27334,-0.59705 -0.24166,-0.64131 -0.19302,-0.18462 0.17628,1.65532 0.88723,3.05077 2.09956,4.20378 0.28154,0.26776 0.7445,0.5173 0.72164,0.5173 -0.0229,0 -0.66162,-0.15741 -1.08746,-0.32187 -0.6932,-0.26771 -0.78776,-0.28553 -0.90312,-0.17016 -0.11537,0.11537 -0.11154,0.14184 0.0366,0.25285 0.091,0.0682 0.48933,0.26667 0.88514,0.44107 0.39582,0.1744 0.73136,0.32435 0.74564,0.33321 0.0457,0.0284 -0.36926,0.83762 -0.42559,0.83044 -0.0298,-0.004 -0.34028,-0.0537 -0.66514,-0.12332 z m 2.46588,-4.32513 c 1.09396,-0.49654 1.56685,-1.93283 1.00984,-3.06714 -0.36306,-0.73931 -1.00299,-1.16929 -1.73517,-1.16587 -0.53372,0.002 -1.0197,0.23755 -1.39315,0.67385 -0.80146,0.93633 -0.75247,2.26493 0.11561,3.13499 0.59022,0.59157 1.30196,0.7423 2.00287,0.42417 z m 2.31576,3.16684 c -0.25046,-0.0674 -0.68861,-0.24583 -0.97366,-0.39659 -0.41948,-0.22186 -0.52339,-0.3185 -0.54507,-0.50695 -0.033,-0.28669 0.021,-0.28861 0.74748,-0.0266 1.29347,0.46658 2.55358,0.45715 3.88593,-0.0291 l 0.68505,-0.25001 v 0.24688 c 0,0.30704 -0.39368,0.58896 -1.239,0.88725 -0.68585,0.24202 -1.81676,0.27518 -2.56073,0.0751 z m 8.90752,-12.27588 c -0.44529,-0.28209 -0.31885,-0.10348 -0.31751,-0.0972 l 0.19828,0.39798 -0.46595,-0.36093 c -0.8422,-0.65237 -1.70261,-1.17613 -2.36361,-1.37365 -0.32294,-0.0965 0.0376,0.0611 0.20864,0.21203 0.0957,0.0844 0.47254,0.53604 0.58643,0.61832 0.12464,0.0901 -0.61351,-0.3193 -0.87049,-0.443 -0.63903,-0.30779 -1.22034,-0.4681 -1.82099,-0.4806 -0.29514,-0.006 -0.60124,-0.0866 -0.60125,-0.0998 0,-0.0132 0.0961,-0.21371 0.21365,-0.44561 0.17723,-0.34975 0.24579,-0.41493 0.40216,-0.38229 2.31189,0.48245 4.42828,1.19751 4.71121,1.59177 0.27776,0.38705 0.71743,1.19697 0.65887,1.19064 -0.0335,-0.004 -0.17422,-0.10545 -0.38148,-0.24153 z"
         id="path8"
         sodipodi:nodetypes="cssscssssssccsssccccssscssssssssssssssccccsscsssssscscsssscscssccccsccsccc"
         transform="translate(1.8381685,1.2637399)" /><path
         style="fill:#838383;fill-opacity:1"
         d="m 104.84946,136.09273 c -1.14384,-0.43514 -2.59298,-1.16425 -3.58137,-1.80193 -0.65733,-0.42407 -0.74108,-0.50903 -0.91017,-0.92327 -0.16105,-0.39455 -0.186,-0.61332 -0.18452,-1.61842 l 0.002,-1.1622 0.43626,0.67733 c 0.53783,0.83503 1.59515,1.86887 2.43899,2.38481 0.34925,0.21354 0.73918,0.47573 0.86651,0.58264 0.30129,0.25299 0.99354,0.50823 2.09683,0.77314 0.48895,0.11741 0.90124,0.22505 0.91621,0.2392 0.015,0.0142 -0.15256,0.29607 -0.37226,0.62647 -0.29319,0.44092 -0.44684,0.5986 -0.57754,0.59267 -0.0979,-0.004 -0.60674,-0.17113 -1.13065,-0.37044 z m 11.72053,-0.31999 c -0.67633,-1.02449 -0.85698,-1.41817 -0.6508,-1.41817 0.14706,0 1.69384,-0.78012 1.69384,-0.85429 0,-0.0391 -0.0734,-0.11037 -0.16312,-0.15838 -0.12322,-0.0659 -0.26302,-0.0438 -0.5715,0.0905 -0.71302,0.3104 -1.87946,0.65943 -2.85257,0.85354 -1.79508,0.35808 -4.36885,0.23274 -6.14149,-0.29909 -0.7155,-0.21466 -1.87648,-1.47404 -2.43184,-2.63793 -0.32695,-0.68523 -0.62512,-1.77741 -0.62199,-2.27838 l 0.002,-0.34629 0.24711,0.508 c 0.13591,0.2794 0.4533,0.75751 0.70532,1.06247 0.35967,0.43523 0.57462,0.6082 0.99956,0.80433 0.50427,0.23276 0.61094,0.24987 1.55735,0.24987 0.9155,0 1.06208,-0.0216 1.48187,-0.21855 0.55624,-0.26095 1.14263,-0.82432 1.45396,-1.3969 0.12457,-0.2291 0.34814,-0.83565 0.49682,-1.34789 0.49107,-1.69177 1.06305,-2.569 2.00106,-3.06895 0.77384,-0.41246 1.44725,-0.50232 2.50111,-0.33376 1.08154,0.17298 1.50551,0.21089 1.50551,0.13459 0,-0.1153 -0.64061,-1.001 -1.01893,-1.40876 -0.87798,-0.94628 -1.90609,-1.61832 -3.0874,-2.01814 -0.55666,-0.1884 -0.88851,-0.23849 -1.86267,-0.28115 l -1.18533,-0.0519 0.46567,-0.16429 c 0.3541,-0.12492 0.68829,-0.16387 1.39494,-0.16259 1.05466,0.002 1.05479,-0.008 0.002,-0.1672 l -0.762,-0.11517 0.33866,-0.15169 c 1.23727,-0.55418 3.36328,0.0152 5.04392,1.35083 0.57676,0.44432 0.93984,0.78462 0.20763,0.0808 -0.75877,-0.72937 -2.04254,-1.48768 -2.85971,-1.68919 -0.12806,-0.0316 -0.23284,-0.11044 -0.23284,-0.17524 0,-0.0896 0.14373,-0.11782 0.59891,-0.11782 0.65771,0 1.53055,0.24858 2.24837,0.64033 l 0.41239,0.22506 -0.29633,-0.26032 c -0.16299,-0.14318 -0.36301,-0.28332 -0.4445,-0.31141 -0.0815,-0.0281 -0.14817,-0.0866 -0.14817,-0.13003 0,-0.10629 0.0162,-0.10383 0.59021,0.0895 0.68253,0.22993 1.28882,0.60109 1.98878,1.21751 0.49373,0.43481 0.55047,0.46749 0.34978,0.20148 -0.29473,-0.39065 -0.15637,-0.4186 0.37782,-0.0763 0.51193,0.32803 0.59487,0.43579 1.08496,1.40981 1.49954,2.98019 2.1951,6.29093 2.00086,9.52373 l -0.061,1.01472 -0.39289,0.28062 c -1.06457,0.76037 -2.55339,1.55559 -3.92412,2.096 -0.47929,0.18895 -0.95895,0.37979 -1.06591,0.42408 -0.39848,0.16498 -0.50194,0.0994 -0.97556,-0.61798 z m -0.40516,-5.1126 c 0.6866,-0.34215 1.1942,-1.201 1.1942,-2.02057 0,-1.12537 -0.95256,-2.159 -1.98967,-2.159 -1.28918,0 -2.27715,1.45919 -1.90214,2.80938 0.14939,0.53787 0.60568,1.10495 1.09459,1.36036 0.57358,0.29964 1.016,0.30235 1.60302,0.01 z"
         id="path9"
         sodipodi:nodetypes="cssccssssssccccsssssssccssssssssssssscscccssssssscssscssssscssscccsssscc"
         transform="translate(1.8381685,1.2637399)" /><path
         d="m 113.6716,135.07491 c -0.69521,0 -1.36478,-0.0997 -2.00871,-0.29918 -0.64961,-0.20515 -1.49296,-0.7408 -1.75223,-0.95734 -0.25927,-0.21654 -0.26782,-0.90888 0,-0.70944 0.26782,0.19944 1.12542,0.7009 1.76933,0.90604 0.64393,0.19945 1.30495,0.29917 1.98304,0.29917 0.66102,0 1.31064,-0.0997 1.94886,-0.29917 0.63254,-0.20514 1.48445,-0.70091 1.75227,-0.89751 0.26782,-0.1966 0.25073,0.48437 0,0.70091 -0.25072,0.21654 -1.06845,0.75219 -1.70099,0.95734 -0.63821,0.19945 -1.30207,0.29918 -1.99157,0.29918 z"
         id="text9"
         style="font-size:3.175px;fill:#303030;stroke-width:0.712301;fill-opacity:1"
         aria-label="("
         sodipodi:nodetypes="sczzcsczzcs" /></g></g></svg>
